<?xml version="1.0" encoding="UTF-8" standalone="no"?>
<svg
   width="16"
   height="16"
   viewBox="0 0 16 16"
   version="1.1"
   id="svg7"
   sodipodi:docname="vca_icon.svg"
   inkscape:version="1.4.2 (ebf0e940d0, 2025-05-08)"
   xmlns:inkscape="http://www.inkscape.org/namespaces/inkscape"
   xmlns:sodipodi="http://sodipodi.sourceforge.net/DTD/sodipodi-0.dtd"
   xmlns="http://www.w3.org/2000/svg"
   xmlns:svg="http://www.w3.org/2000/svg">
  <sodipodi:namedview
     id="namedview7"
     pagecolor="#505050"
     bordercolor="#ffffff"
     borderopacity="1"
     inkscape:showpageshadow="0"
     inkscape:pageopacity="0"
     inkscape:pagecheckerboard="1"
     inkscape:deskcolor="#505050"
     showgrid="true"
     inkscape:zoom="25.743106"
     inkscape:cx="11.692451"
     inkscape:cy="11.090348"
     inkscape:window-width="2560"
     inkscape:window-height="1416"
     inkscape:window-x="0"
     inkscape:window-y="0"
     inkscape:window-maximized="1"
     inkscape:current-layer="svg7">
    <inkscape:grid
       id="grid7"
       units="px"
       originx="0"
       originy="0"
       spacingx="1"
       spacingy="1"
       empcolor="#0099e5"
       empopacity="0.30196078"
       color="#0099e5"
       opacity="0.14901961"
       empspacing="5"
       enabled="true"
       visible="true" />
  </sodipodi:namedview>
  <defs
     id="defs3">
    <linearGradient
       id="a"
       x2="0"
       y1="1"
       y2="15"
       gradientUnits="userSpaceOnUse">
      <stop
         offset="0"
         stop-color="#ff5f5f"
         id="stop1" />
      <stop
         offset=".5"
         stop-color="#e1da5b"
         id="stop2" />
      <stop
         offset="1"
         stop-color="#5fff97"
         id="stop3" />
    </linearGradient>
  </defs>
  <path
     d="M2.305 1C1.582 1 1 1.582 1 2.305v11.39C1 14.418 1.582 15 2.305 15h11.39c.723 0 1.305-.582 1.305-1.305V2.305C15 1.582 14.418 1 13.695 1Zm.533 1h10.324c.464 0 .838.374.838.838v10.324a.836.836 0 0 1-.838.838H2.838A.836.836 0 0 1 2 13.162V2.838C2 2.374 2.374 2 2.838 2"
     style="fill:url(#a);fill-opacity:1;fill-rule:nonzero"
     id="path3" />
  <circle
     style="fill:url(#a)"
     id="path8"
     cx="4"
     cy="5"
     r="1" />
  <circle
     style="fill:url(#a)"
     id="path9"
     cx="8"
     cy="5"
     r="1" />
  <rect
     style="fill:url(#a);stroke:none;stroke-opacity:1"
     id="rect11"
     width="1"
     height="8"
     x="11"
     y="4"
     ry="0.5" />
  <rect
     style="fill:url(#a);stroke:none;stroke-width:1.3475;stroke-opacity:1"
     id="rect12"
     width="1.8157524"
     height="2.1559169"
     x="10.592124"
     y="7.9220414"
     ry="0.25" />
  <ellipse
     style="fill:url(#a);stroke:none;stroke-opacity:1"
     id="path12"
     cx="4"
     cy="11.006195"
     rx="1"
     ry="0.99380523" />
  <ellipse
     style="fill:url(#a);stroke:none;stroke-opacity:1"
     id="path13"
     cx="8"
     cy="11.06607"
     rx="1"
     ry="1.0536798" />
  <ellipse
     style="fill:url(#a);stroke:none;stroke-opacity:1"
     id="path14"
     cx="8"
     cy="8.0057926"
     rx="1"
     ry="0.99420708" />
  <circle
     style="fill:url(#a);stroke:none;stroke-opacity:1"
     id="path15"
     cx="4"
     cy="8"
     r="1" />
</svg>
