<svg xmlns="http://www.w3.org/2000/svg" width="16" height="16" viewBox="0 0 16 16"><path d="M1.877 1.492 1.243 4.03A8 8 97.018 0 0 1 6v8a1 1 45 0 0 1 1h12a1 1 135 0 0 1-1V6.033a8.4 8.4 82.982 0 0-.25-2.036l-.627-2.506A.65.65 37.982 0 0 13.494 1H2.507a.65.65 142.018 0 0-.63.492M2.043 6h11.902c.03 0 .055.024.055.055v7.89c0 .03-.024.055-.055.055H2.055A.054.054 0 0 1 2 13.945v-7.89c0-.027.018-.05.043-.055" style="fill:#e0e0e0"/><path d="M7.945 6.313a.343.343 0 0 0-.343.343v.94a2.44 2.44 0 0 0-1.02.424H6.58l-.664-.666a.341.341 0 0 0-.486 0l-.078.078a.34.34 0 0 0 0 .484l.666.666a2.44 2.44 0 0 0-.422 1.02h-.942a.343.343 0 0 0-.343.343v.11c0 .19.153.343.343.343h.942a2.44 2.44 0 0 0 .422 1.02l-.666.666a.34.34 0 0 0 0 .484l.078.078a.344.344 0 0 0 .486 0l.664-.666h.002a2.44 2.44 0 0 0 1.02.424v.94c0 .19.153.344.343.344h.11c.19 0 .344-.154.343-.344v-.94a2.44 2.44 0 0 0 1.02-.422l.664.664c.135.135.35.135.484 0l.079-.078a.34.34 0 0 0 0-.484l-.665-.664a2.44 2.44 0 0 0 .424-1.022h.938c.19 0 .344-.153.344-.343v-.11a.343.343 0 0 0-.344-.343h-.938A2.44 2.44 0 0 0 9.98 8.58l.665-.664a.34.34 0 0 0 0-.484l-.079-.078a.34.34 0 0 0-.484 0l-.664.664a2.44 2.44 0 0 0-1.02-.422v-.94a.343.343 0 0 0-.343-.343Zm.028 2.22a1.47 1.47 0 0 1 1.39.926l.104.514a1.467 1.467 0 0 1-1.307 1.486 1.467 1.467 0 0 1-1.598-1.17 1.467 1.467 0 0 1 1.02-1.695 1.5 1.5 0 0 1 .39-.06" style="fill:#e0e0e0"/></svg>