<svg xmlns="http://www.w3.org/2000/svg" width="16" height="16" viewBox="0 0 16 16"><defs><linearGradient id="a" x2="0" y1="1" y2="15" gradientUnits="userSpaceOnUse"><stop offset="0" stop-color="#ff5f5f"/><stop offset=".5" stop-color="#e1da5b"/><stop offset="1" stop-color="#5fff97"/></linearGradient></defs><path d="M2.305 1C1.582 1 1 1.582 1 2.305v11.39C1 14.418 1.582 15 2.305 15h11.39c.723 0 1.305-.582 1.305-1.305V2.305C15 1.582 14.418 1 13.695 1Zm.533 1h10.324c.464 0 .838.374.838.838v10.324a.836.836 0 0 1-.838.838H2.838A.836.836 0 0 1 2 13.162V2.838C2 2.374 2.374 2 2.838 2" style="fill:url(#a);fill-opacity:1;fill-rule:nonzero"/><path d="M3 3v6l5-3Z" style="fill:url(#a);fill-opacity:1;fill-rule:nonzero"/><path d="M9 5c-.667 0-.667 1 0 1h3.5c.667 0 .667-1 0-1z" style="fill:url(#a);fill-opacity:1;fill-rule:nonzero"/><path d="M9 8c-.667 0-.667 1 0 1h3.5c.667 0 .667-1 0-1z" style="fill:url(#a);fill-opacity:1;fill-rule:nonzero"/><path d="M3.5 11a.5.5 0 1 0 0 1h9a.5.5 0 1 0 0-1z" style="fill:url(#a);fill-opacity:1;fill-rule:nonzero"/></svg>